<!--?xml version="1.0" encoding="utf-8"?-->
<!-- Generator: Adobe Illustrator 18.1.1, SVG Export Plug-In . SVG Version: 6.00 Build 0)  -->

<svg version="1.1" id="_x31_0" xmlns="http://www.w3.org/2000/svg" xmlns:xlink="http://www.w3.org/1999/xlink" x="0px" y="0px" viewBox="0 0 512 512" style="width: 256px; height: 256px; opacity: 1;" xml:space="preserve">
<style type="text/css">
	.st0{fill:#374149;}
</style>
<g>
	<path class="st0" d="M135.413,214.973c-17.722,79.172,8.223,119.828,67.454,134.469c2.274,0.57,4.488,1.176,6.871,1.68
		c0.004-0.012,0.004-0.024,0.004-0.031c0.054,0.011,0.106,0.027,0.16,0.038c0.633-13.687,0.766-42.488-6.469-72.351
		c-4.258-17.594-7.754-39.653-3.652-41.84c0.046-0.024,0.09-0.051,0.136-0.07c1.934-0.793,5.434,2.527,11.153,12.274
		c9.324,15.878,22.726,23.031,28.094,20.777c11.906-5.011-0.789-35.125,15.59-64.445c0.054-0.094,0.113-0.184,0.168-0.278
		c1.082-1.914,2.332-3.821,3.679-5.722c0.293-0.406,0.558-0.821,0.867-1.227c1.313-1.77,2.793-3.519,4.367-5.258
		c0.73-0.801,1.512-1.598,2.305-2.39c0.898-0.91,1.883-1.805,2.863-2.703c0.828-0.75,1.629-1.508,2.516-2.246
		c3.863,63.301,5.89,84.871,21.359,83.774c4.558-0.289,23.27-20.094,31.008-30.66c4.098-5.543,6.465,25.867,2.309,63.977
		c-3.122,28.93-9.356,43.653-13.918,50.813c0.52,0,1.098-0.055,1.618-0.114c3.05-0.285,5.914-0.832,8.789-1.363
		c0.023-0.004,0.043-0.008,0.062-0.012c2.496-0.465,4.914-1.035,7.286-1.679c0.859-0.23,1.699-0.489,2.542-0.738
		c2.098-0.641,4.199-1.282,6.195-2.058c2.61-1.004,5.13-2.122,7.563-3.34c1.058-0.539,2.058-1.149,3.086-1.73
		c2.05-1.141,4.039-2.348,5.965-3.641c0.66-0.45,1.324-0.89,1.973-1.355c32.422-23.13,46.664-67.501,52.414-109.918
		c0.277-1.985,0.519-3.965,0.758-5.95c0.078-0.648,0.148-1.289,0.222-1.934c7.875-68.102-3.922-135.958-7.527-132.645
		c-17.617,16.141-35.348,28.465-65.898,48.066c-1.797,1.141-3.473,2.219-5.367,3.414c-5.461-12.645-21.223-53.723-24.754-112.254
		c-0.48-8.375-0.706-17.11-0.613-26.172c-0.027,0.023-0.055,0.043-0.086,0.062c0-0.066,0-0.129,0-0.191
		c-50.75,34.145-81.07,67.91-95.786,109.153c-3.374,9.355-5.945,19.086-7.789,29.274c-4.824-9.161-87.336-59.352-79.41-42.633
		C137.375,124.949,145.867,168.375,135.413,214.973z" style="fill: rgb(48, 178, 127);"></path>
	<path class="st0" d="M72.218,412.099l53.618,15.019l44.687-12.5l38.082-10.504l-0.254-0.074l0.298-0.082l-124.376-34.86
		c-4.598-1.289-9.37,1.391-10.66,5.993l-7.39,26.343C64.933,406.036,67.616,410.809,72.218,412.099z" style="fill: rgb(48, 178, 127);"></path>
	<path class="st0" d="M439.762,468.685l-53.691-15.027l-44.551,12.461l-38.215,10.543l0.254,0.07l-0.297,0.086l124.492,34.86
		c4.602,1.289,9.379-1.399,10.664-6.004l7.344-26.34C447.044,474.736,444.36,469.97,439.762,468.685z" style="fill: rgb(48, 178, 127);"></path>
	<path class="st0" d="M445.778,401.411l-7.383-26.344c-1.285-4.602-6.058-7.285-10.656-5.996L72.234,468.658
		c-4.602,1.289-7.286,6.062-5.997,10.66l7.383,26.348c1.289,4.598,6.058,7.285,10.66,5.996l355.501-99.586
		C444.383,410.786,447.067,406.013,445.778,401.411z" style="fill: rgb(48, 178, 127);"></path>
</g>
</svg>
