<!--?xml version="1.0" encoding="utf-8"?-->
<!-- Generator: Adobe Illustrator 19.1.1, SVG Export Plug-In . SVG Version: 6.00 Build 0)  -->
<svg version="1.1" id="_x31_0" xmlns="http://www.w3.org/2000/svg" xmlns:xlink="http://www.w3.org/1999/xlink" x="0px" y="0px" viewBox="0 0 512 512" style="width: 256px; height: 256px; opacity: 1;" xml:space="preserve">
<style type="text/css">
	.st0{fill:#374149;}
</style>
<g>
	<path class="st0" d="M205.407,292.691c-1.833,8.11-2.414,15.118-1.918,21.192c0,0.117,0.027,0.202,0.027,0.32
		c0.145,1.394,0.321,2.73,0.551,4.012c0.031,0.202,0.09,0.378,0.148,0.582c0.23,1.191,0.524,2.383,0.871,3.516
		c0.058,0.144,0.118,0.293,0.176,0.465c0.375,1.137,0.812,2.238,1.278,3.285c0.058,0.118,0.117,0.234,0.175,0.348
		c0.524,1.078,1.074,2.094,1.715,3.082c0.027,0.058,0.027,0.09,0.058,0.118c0.054,0.086,0.145,0.175,0.172,0.262
		c0.554,0.812,1.133,1.629,1.774,2.382c0.086,0.09,0.175,0.203,0.262,0.321c0.668,0.726,1.336,1.484,2.035,2.152
		c0.144,0.114,0.262,0.23,0.378,0.321c0.727,0.668,1.481,1.336,2.298,1.918c0.144,0.118,0.289,0.203,0.434,0.32
		c0.812,0.578,1.656,1.161,2.558,1.684c0.117,0.058,0.23,0.117,0.32,0.176c3.457,2.004,7.469,3.546,12.004,4.71
		c0.828,0.219,1.668,0.422,2.531,0.606c0.114,0.043,0.25,0.066,0.359,0.114c0.004-0.008,0.004-0.02,0.004-0.02
		c0.043,0.004,0.086,0.016,0.129,0.028c0,0,0,0,0.031,0c0.23-5.207,0.29-16.196-2.472-27.559c-0.981-4.09-1.848-8.789-2.035-12.046
		c-0.016-1.794,0.222-3.184,0.801-3.938c0.75-0.172,2.05,1.106,4.14,4.676c3.196,5.402,7.485,7.996,9.856,7.922
		c0.007,0,0.011,0.004,0.011,0.004c0.012,0,0.016-0.004,0.024-0.004c0.27-0.012,0.625,0.102,0.836,0.015
		c4.129-1.746,0.437-11.511,4.566-21.714c0.054-0.176,0.144-0.348,0.202-0.523c0.114-0.262,0.231-0.524,0.375-0.786
		c0.118-0.262,0.262-0.55,0.406-0.844c0.118-0.171,0.203-0.378,0.293-0.55c0.582-1.019,1.219-2.035,1.977-3.023
		c0.027-0.059,0.086-0.118,0.117-0.145c0.379-0.496,0.754-0.961,1.192-1.453c0-0.031,0.027-0.059,0.058-0.09
		c0.789-0.863,1.699-1.714,2.672-2.546c0.164-0.114,0.297-0.238,0.473-0.344c1.449,24.043,2.242,32.25,8.133,31.817
		c1.714-0.118,8.867-7.645,11.801-11.688c1.57-2.094,2.472,9.855,0.874,24.39c-1.195,11.016-3.546,16.626-5.293,19.36
		c0.066,0,0.133-0.016,0.195-0.02c-0.019,0.031-0.039,0.074-0.058,0.106l0.176-0.117c0.098-0.012,0.199-0.016,0.297-0.028
		c4.508-0.406,8.519-1.57,12.066-3.343c0.113-0.059,0.262-0.118,0.379-0.176c0.754-0.375,1.453-0.785,2.148-1.191
		c0.438-0.29,0.871-0.582,1.309-0.871c0.176-0.118,0.347-0.234,0.523-0.379c13.226-9.301,18.574-27.875,20.492-44.938
		c2.996-25.961-1.511-51.832-2.878-50.582c-6.742,6.191-13.485,10.871-25.23,18.402c-0.566,0.378-1.164,0.754-1.786,1.133
		c-0.05,0.023-0.082,0.054-0.137,0.074c-2.094-4.832-8.078-20.466-9.441-42.778c-0.157-2.821-0.207-5.774-0.207-8.793
		c0.019-0.36,0.007-0.711,0.035-1.07c-0.024,0.011-0.039,0.023-0.059,0.039c0-0.051-0.003-0.094-0.003-0.145
		c0,0-0.028,0-0.028,0.027c0-0.027,0-0.058,0-0.058c-19.305,12.996-30.871,25.844-36.48,41.543
		c-0.742,2.062-1.168,4.301-1.715,6.472c-0.43,1.559-0.93,3.012-1.34,4.633c-2.226-3.691-33.171-22.476-30.171-16.164
		C206.133,258.422,209.387,274.961,205.407,292.691z" style="fill: rgb(48, 178, 127);"></path>
	<path class="st0" d="M369.613,475.797h-40.23v-60.375c0-9.793-4.179-18.542-10.781-24.77c-0.176-0.171-0.305-0.386-0.489-0.558
		c9.676-7.062,18.512-15.84,26.27-26.066c20.985-27.73,32.527-64.125,32.527-102.438c0-27.675-6.015-54.328-17.238-77.469
		c1.074-2.035,1.687-4.39,1.687-6.859v-28.836c0-8.109-6.543-14.652-14.653-14.652h-8.988l-2.543-0.043
		c0.864-2.75,1.329-5.641,1.329-8.676c0-11.598-6.801-21.629-16.657-26.277V63.863c0-24.183-13.515-45.289-33.371-56.129
		c-2.238-4.39-6.801-7.383-12.062-7.383h-11.683C260.52,0.117,258.281,0,255.984,0c-2.27,0-4.535,0.117-6.746,0.351h-11.657
		c-3.75,0-7.148,1.512-9.59,3.981c-1.019,0.988-1.863,2.152-2.5,3.43c-19.855,10.844-33.344,31.918-33.344,56.102v34.914
		c-3.05,1.422-5.785,3.371-8.137,5.726c-5.262,5.262-8.519,12.527-8.519,20.55c0,2.774,0.434,5.41,1.156,7.946
		c0.058,0.262,0.09,0.516,0.153,0.774h-11.539c-8.082,0-14.653,6.543-14.653,14.652v28.836c0,2.469,0.614,4.824,1.715,6.859
		c-11.218,23.141-17.234,49.794-17.234,77.469c0,38.313,11.539,74.707,32.496,102.438c7.321,9.649,15.645,17.946,24.66,24.793
		c0.539,0.422,1.055,0.887,1.602,1.301c-6.906,6.246-11.262,15.25-11.262,25.301v60.375h-40.207c-2.129,0-3.851,1.726-3.851,3.852
		v28.5c0,2.129,1.722,3.851,3.851,3.851h227.234c2.126,0,3.848-1.722,3.848-3.851v-28.5
		C373.461,477.523,371.739,475.797,369.613,475.797z M210.899,451.254v-39.554c0-1.629,1.308-2.938,2.938-2.938h20.434h25.812
		c1.367,0,2.5,0.902,2.821,2.153c0.086,0.262,0.117,0.523,0.117,0.785l-32.371,24.645L210.899,451.254z M237.582,27.473h36.832
		c3.75,0,7.122-1.512,9.562-3.985l0.118-0.117c12.82,8.898,21.218,23.722,21.218,40.492v32.121h-98.629V63.863
		c0-16.742,8.402-31.594,21.191-40.492C230.348,25.902,233.777,27.473,237.582,27.473z M200.399,191.984l-8.133,15.566
		c-1.481,2.821-0.379,6.336,2.473,7.821c0.87,0.465,1.773,0.668,2.671,0.668c2.126,0,4.13-1.133,5.176-3.11l10.988-21.019h15.188
		l6.922,0.074l-21.617,41.321c-1.481,2.847-0.375,6.367,2.473,7.847c0.839,0.438,1.773,0.672,2.675,0.672
		c2.09,0,4.126-1.164,5.172-3.141l24.446-46.773h78.805c10.874,19.507,17.297,43.606,17.297,69.679
		c0,64.938-39.825,117.61-88.95,117.61c-49.098,0-88.922-52.672-88.922-117.61c0-26.074,6.394-50.172,17.27-69.679h11.035
		L200.399,191.984z" style="fill: rgb(48, 178, 127);"></path>
</g>
</svg>
